<mxfile host="Electron" modified="2024-05-30T15:35:28.257Z" agent="Mozilla/5.0 (Windows NT 10.0; Win64; x64) AppleWebKit/537.36 (KHTML, like Gecko) draw.io/24.1.0 Chrome/120.0.6099.109 Electron/28.1.0 Safari/537.36" etag="BliQeV4ULb7kTUFkDLef" version="24.1.0" type="device">
  <diagram name="第 1 页" id="wKQTqZ_pLph54FhLUg29">
    <mxGraphModel dx="1290" dy="746" grid="1" gridSize="10" guides="1" tooltips="1" connect="1" arrows="1" fold="1" page="1" pageScale="1" pageWidth="1169" pageHeight="827" math="0" shadow="0">
      <root>
        <mxCell id="0" />
        <mxCell id="1" parent="0" />
        <mxCell id="50Wz7KMpGu0Xje1QLg8a-20" value="" style="rounded=0;orthogonalLoop=1;jettySize=auto;html=1;entryX=0.488;entryY=0.011;entryDx=0;entryDy=0;entryPerimeter=0;" edge="1" parent="1" source="50Wz7KMpGu0Xje1QLg8a-3" target="50Wz7KMpGu0Xje1QLg8a-16">
          <mxGeometry relative="1" as="geometry" />
        </mxCell>
        <mxCell id="50Wz7KMpGu0Xje1QLg8a-3" value="" style="outlineConnect=0;dashed=0;verticalLabelPosition=bottom;verticalAlign=top;align=center;html=1;shape=mxgraph.aws3.management_console;fillColor=#d80073;strokeColor=#A50040;fontColor=#ffffff;" vertex="1" parent="1">
          <mxGeometry x="610" width="63" height="63" as="geometry" />
        </mxCell>
        <mxCell id="50Wz7KMpGu0Xje1QLg8a-21" value="" style="group" vertex="1" connectable="0" parent="1">
          <mxGeometry x="382.13" y="370" width="531.75" height="210" as="geometry" />
        </mxCell>
        <mxCell id="50Wz7KMpGu0Xje1QLg8a-10" value="zhanglei01:6379&lt;br&gt;master" style="image;sketch=0;aspect=fixed;html=1;points=[];align=center;fontSize=12;image=img/lib/mscae/Cache_Redis_Product.svg;container=0;" vertex="1" parent="50Wz7KMpGu0Xje1QLg8a-21">
          <mxGeometry x="240.87" y="44" width="50" height="42" as="geometry" />
        </mxCell>
        <mxCell id="50Wz7KMpGu0Xje1QLg8a-12" style="rounded=0;orthogonalLoop=1;jettySize=auto;html=1;entryX=1.003;entryY=0.247;entryDx=0;entryDy=0;entryPerimeter=0;endArrow=classic;endFill=1;startArrow=classic;startFill=1;" edge="1" parent="50Wz7KMpGu0Xje1QLg8a-21" target="50Wz7KMpGu0Xje1QLg8a-11">
          <mxGeometry relative="1" as="geometry">
            <mxPoint x="240.87" y="73.24671140939597" as="sourcePoint" />
            <mxPoint x="62.370000000000005" y="142" as="targetPoint" />
          </mxGeometry>
        </mxCell>
        <mxCell id="50Wz7KMpGu0Xje1QLg8a-13" style="rounded=0;orthogonalLoop=1;jettySize=auto;html=1;entryX=-0.039;entryY=0.301;entryDx=0;entryDy=0;entryPerimeter=0;startArrow=classic;startFill=1;" edge="1" parent="50Wz7KMpGu0Xje1QLg8a-21" source="50Wz7KMpGu0Xje1QLg8a-10" target="50Wz7KMpGu0Xje1QLg8a-9">
          <mxGeometry relative="1" as="geometry" />
        </mxCell>
        <mxCell id="50Wz7KMpGu0Xje1QLg8a-18" value="redis集群" style="swimlane;fillColor=#a0522d;strokeColor=#6D1F00;container=0;fontColor=#ffffff;" vertex="1" parent="50Wz7KMpGu0Xje1QLg8a-21">
          <mxGeometry width="531.75" height="210" as="geometry" />
        </mxCell>
        <mxCell id="50Wz7KMpGu0Xje1QLg8a-11" value="zhanglei01:6381&lt;br&gt;salver02" style="image;sketch=0;aspect=fixed;html=1;points=[];align=center;fontSize=12;image=img/lib/mscae/Cache_Redis_Product.svg;container=0;" vertex="1" parent="50Wz7KMpGu0Xje1QLg8a-18">
          <mxGeometry x="61.75" y="130" width="50" height="42" as="geometry" />
        </mxCell>
        <mxCell id="50Wz7KMpGu0Xje1QLg8a-9" value="zhanglei01:6380&lt;br&gt;salver01" style="image;sketch=0;aspect=fixed;html=1;points=[];align=center;fontSize=12;image=img/lib/mscae/Cache_Redis_Product.svg;container=0;" vertex="1" parent="50Wz7KMpGu0Xje1QLg8a-18">
          <mxGeometry x="431.75" y="130" width="50" height="42" as="geometry" />
        </mxCell>
        <mxCell id="50Wz7KMpGu0Xje1QLg8a-22" style="edgeStyle=orthogonalEdgeStyle;rounded=0;orthogonalLoop=1;jettySize=auto;html=1;exitX=0.5;exitY=0;exitDx=0;exitDy=0;entryX=0.5;entryY=1;entryDx=0;entryDy=0;startArrow=classicThin;startFill=1;" edge="1" parent="1" source="50Wz7KMpGu0Xje1QLg8a-18" target="50Wz7KMpGu0Xje1QLg8a-16">
          <mxGeometry relative="1" as="geometry" />
        </mxCell>
        <mxCell id="50Wz7KMpGu0Xje1QLg8a-23" value="" style="group" vertex="1" connectable="0" parent="1">
          <mxGeometry x="388.26" y="120" width="519.5" height="147" as="geometry" />
        </mxCell>
        <mxCell id="50Wz7KMpGu0Xje1QLg8a-16" value="哨兵集群" style="swimlane;fillColor=#dae8fc;strokeColor=#6c8ebf;" vertex="1" parent="50Wz7KMpGu0Xje1QLg8a-23">
          <mxGeometry width="519.5" height="147" as="geometry" />
        </mxCell>
        <mxCell id="50Wz7KMpGu0Xje1QLg8a-19" value="" style="group" vertex="1" connectable="0" parent="50Wz7KMpGu0Xje1QLg8a-23">
          <mxGeometry x="31.74000000000001" y="40" width="450" height="60.71" as="geometry" />
        </mxCell>
        <mxCell id="50Wz7KMpGu0Xje1QLg8a-2" value="zhanglei01:26379&lt;br&gt;哨兵01" style="image;aspect=fixed;html=1;points=[];align=center;fontSize=12;image=img/lib/azure2/security/Azure_Sentinel.svg;" vertex="1" parent="50Wz7KMpGu0Xje1QLg8a-19">
          <mxGeometry width="50.00000000000001" height="60.71" as="geometry" />
        </mxCell>
        <mxCell id="50Wz7KMpGu0Xje1QLg8a-4" value="zhanglei01:26380&lt;br&gt;哨兵02" style="image;aspect=fixed;html=1;points=[];align=center;fontSize=12;image=img/lib/azure2/security/Azure_Sentinel.svg;" vertex="1" parent="50Wz7KMpGu0Xje1QLg8a-19">
          <mxGeometry x="207" width="50.00000000000001" height="60.71" as="geometry" />
        </mxCell>
        <mxCell id="50Wz7KMpGu0Xje1QLg8a-5" value="zhanglei01:26381&lt;br&gt;哨兵03" style="image;aspect=fixed;html=1;points=[];align=center;fontSize=12;image=img/lib/azure2/security/Azure_Sentinel.svg;" vertex="1" parent="50Wz7KMpGu0Xje1QLg8a-19">
          <mxGeometry x="400" width="50.00000000000001" height="60.71" as="geometry" />
        </mxCell>
      </root>
    </mxGraphModel>
  </diagram>
</mxfile>
